<svg width="25" height="26" viewBox="0 0 25 26" fill="none" xmlns="http://www.w3.org/2000/svg">
<path d="M4.96973 23.7972C4.96973 23.446 5.25439 23.1614 5.60553 23.1614H23.5355C23.8866 23.1614 24.1713 23.446 24.1713 23.7972V23.7972H4.96973V23.7972Z" fill="white"/>
<rect x="4.02539" y="23.7972" width="20.9328" height="1.39877" rx="0.5" fill="white"/>
<path d="M3.93999 19.5831L4.28 18.1413C4.43618 17.479 4.97849 16.9912 5.67225 16.8889L9.28551 16.3564C9.55845 16.3162 9.78248 16.1433 9.8816 15.8963C10.0021 15.596 10.3041 15.4106 10.644 15.4284L10.8531 15.4393C11.3559 15.4656 11.7935 15.1683 11.93 14.7079L12.2088 13.7674C12.322 13.3856 12.3338 12.9757 12.2432 12.5743L12.0844 11.871C11.9353 11.2107 11.6604 10.575 11.2742 9.99796L10.0479 8.16537L9.6262 7.38477C9.18518 6.56835 9.00592 5.65659 9.11307 4.77489C9.15244 4.45092 9.23002 4.135 9.3443 3.83323L9.44305 3.57247C9.7552 2.74819 10.3426 2.06451 11.1165 1.6249C11.5469 1.38038 12.0249 1.21714 12.5274 1.14309L13.1364 1.05334C13.7688 0.960142 14.4182 0.957876 15.0645 1.04662L15.5988 1.11999C16.3957 1.2294 17.1646 1.53506 17.8315 2.00756L18.2516 2.30512C18.7425 2.65287 19.127 3.12694 19.3569 3.66795C19.6766 4.41988 19.6741 5.24492 19.3502 5.95086L16.595 11.9559C16.2861 12.6292 16.3302 13.4271 16.7141 14.1118L16.9791 14.5844C17.1879 14.9566 17.5542 15.2268 17.973 15.3175L18.4262 15.4157C18.7165 15.4786 18.9498 15.7062 19.0136 15.9888C19.0842 16.3018 19.3611 16.5432 19.6862 16.5753L22.6192 16.8647C23.5048 16.9521 24.2592 17.6099 24.4517 18.4626L24.7695 19.8703C24.8266 20.1233 24.6649 20.359 24.4084 20.3968L24.2074 20.4264C24.0619 20.4478 23.9702 20.5816 24.0026 20.7251C24.0385 20.8844 23.9219 21.0274 23.7568 21.0267L4.98215 20.937C4.76356 20.9359 4.59746 20.7229 4.65956 20.5233C4.71416 20.3477 4.59159 20.1549 4.40081 20.1162L4.28691 20.093C4.04699 20.0443 3.88677 19.8088 3.93999 19.5831Z" fill="white"/>
</svg>
